<?xml version="1.0" encoding="UTF-8" standalone="no"?>
<!-- Created with Inkscape (http://www.inkscape.org/) -->

<svg
   width="156"
   height="156"
   viewBox="0 0 156 156"
   version="1.1"
   id="svg1"
   xml:space="preserve"
   inkscape:version="1.3.2 (091e20e, 2023-11-25, custom)"
   sodipodi:docname="NewItemButton.svg"
   inkscape:export-filename="BaseButton.png"
   inkscape:export-xdpi="96"
   inkscape:export-ydpi="96"
   xmlns:inkscape="http://www.inkscape.org/namespaces/inkscape"
   xmlns:sodipodi="http://sodipodi.sourceforge.net/DTD/sodipodi-0.dtd"
   xmlns="http://www.w3.org/2000/svg"
   xmlns:svg="http://www.w3.org/2000/svg"><sodipodi:namedview
     id="namedview1"
     pagecolor="#ffffff"
     bordercolor="#666666"
     borderopacity="1.0"
     inkscape:showpageshadow="2"
     inkscape:pageopacity="0.0"
     inkscape:pagecheckerboard="0"
     inkscape:deskcolor="#d1d1d1"
     inkscape:document-units="px"
     inkscape:zoom="1.6386719"
     inkscape:cx="-30.81764"
     inkscape:cy="88.791418"
     inkscape:window-width="1920"
     inkscape:window-height="1017"
     inkscape:window-x="-8"
     inkscape:window-y="-8"
     inkscape:window-maximized="1"
     inkscape:current-layer="layer2" /><defs
     id="defs1" /><g
     inkscape:groupmode="layer"
     id="layer4"
     inkscape:label="Capa 4"
     sodipodi:insensitive="true"><g
       id="g10"
       transform="matrix(3.12,0,0,3.12,-559.26608,-269.54484)"><path
         id="rect7"
         style="fill:#ffffff;fill-opacity:1;stroke:none;stroke-width:18.7115;stroke-linecap:round"
         d="m 179.25195,127.40625 v 8.98633 h 8.98633 z" /><path
         id="rect8"
         style="fill:#112e27;fill-opacity:1;stroke:none;stroke-width:18.7115;stroke-linecap:round"
         d="m 179.25195,86.392578 v 35.650392 l 14.34961,14.34961 h 35.65039 V 86.392578 Z" /></g></g><g
     inkscape:groupmode="layer"
     id="layer2"
     inkscape:label="Capa 2"><path
       id="path1"
       style="fill:#ffffff;stroke:none;stroke-width:46.4909;stroke-linecap:round"
       d="m 108.73461,31.360695 -12.547469,-3.36027 -18.36761,18.367626 3.47237,12.951778 -21.972503,21.972505 -12.951752,-3.47241 -18.367626,18.36761 3.36027,12.547476 9.187207,-9.187216 c 4.63138,-4.6314 12.091709,-4.63142 16.723138,0 4.631428,4.631436 4.628009,12.088356 -0.0026,16.719766 l -8.714932,8.71493 11.25976,3.01708 18.367598,-18.36762 -3.46898,-12.948355 21.97249,-21.9725 12.948379,3.46898 18.36763,-18.367602 -3.01708,-11.259759 -8.71493,8.714932 c -4.63141,4.631404 -12.08834,4.634823 -16.71977,0.0026 -4.63143,-4.631429 -4.63141,-12.091759 0,-16.723139 z" /><text
       xml:space="preserve"
       style="font-size:85.3333px;line-height:1.25;font-family:arial;-inkscape-font-specification:arial;stroke:#112e27;stroke-width:3;stroke-linecap:round;stroke-linejoin:round;stroke-dasharray:none;stroke-opacity:1"
       x="83.916664"
       y="121.61409"
       id="text10"><tspan
         sodipodi:role="line"
         id="tspan10"
         x="83.916664"
         y="121.61409"
         style="font-style:normal;font-variant:normal;font-weight:bold;font-stretch:normal;font-size:85.3333px;font-family:arial;-inkscape-font-specification:'arial Bold';fill:#ffffff;stroke:#112e27;stroke-width:3;stroke-linecap:round;stroke-linejoin:round;stroke-dasharray:none;stroke-opacity:1">+</tspan></text></g><g
     inkscape:groupmode="layer"
     id="layer3"
     inkscape:label="Capa 3"
     sodipodi:insensitive="true"
     style="display:none"><path
       id="rect2"
       style="fill:#ffffff;stroke:none;stroke-width:68.7688;stroke-linecap:round"
       d="m 73.086167,28.813929 c -4.110832,0 -7.426464,3.253512 -7.534361,7.337413 H 44.162152 c -3.416598,0 -6.162151,2.751896 -6.162151,6.168494 v 7.305667 c 0,3.416598 2.745553,6.168493 6.162151,6.168493 h 3.309782 v 60.522524 c 0,6.02138 4.848165,10.86955 10.869543,10.86955 h 39.317082 c 6.021381,0 10.869541,-4.84817 10.869541,-10.86955 V 55.793996 h 3.30341 c 3.41663,0 6.16849,-2.751896 6.16849,-6.168493 v -7.305667 c 0,-3.416598 -2.75186,-6.168494 -6.16849,-6.168494 H 90.4482 C 90.340209,32.067441 87.024575,28.813929 82.913871,28.813929 Z M 57.115408,53.85008 h 1.969321 c 1.059274,0 1.912171,0.852896 1.912171,1.912171 v 60.039709 c 0,1.05924 -0.852897,1.91217 -1.912171,1.91217 h -1.969321 c -1.059274,0 -1.912204,-0.85293 -1.912204,-1.91217 V 55.762251 c 0,-1.059275 0.85293,-1.912171 1.912204,-1.912171 z m 13.010407,0 h 1.969319 c 1.059272,0 1.91217,0.852896 1.91217,1.912171 v 60.039709 c 0,1.05924 -0.852897,1.91217 -1.91217,1.91217 h -1.969319 c -1.059273,0 -1.912209,-0.85293 -1.912209,-1.91217 V 55.762251 c 0,-1.059275 0.852936,-1.912204 1.912209,-1.912171 z m 13.010401,0 h 1.96932 c 1.05928,0 1.912176,0.852896 1.912176,1.912171 v 60.039709 c 0,1.05924 -0.852896,1.91217 -1.912176,1.91217 h -1.96932 c -1.059273,0 -1.9122,-0.85293 -1.9122,-1.91217 V 55.762251 c 0,-1.059275 0.852928,-1.912204 1.9122,-1.912171 z m 13.010407,0 h 1.969317 c 1.05928,0 1.91217,0.852896 1.91217,1.912171 v 60.039709 c 0,1.05924 -0.85289,1.91217 -1.91217,1.91217 h -1.969317 c -1.05927,0 -1.912206,-0.85293 -1.912206,-1.91217 V 55.762251 c 0,-1.059275 0.852936,-1.912204 1.912206,-1.912171 z" /></g></svg>
