<?xml version="1.0" encoding="UTF-8" standalone="no"?>
<!-- Created with Inkscape (http://www.inkscape.org/) -->

<svg
   width="156"
   height="156"
   viewBox="0 0 156 156"
   version="1.1"
   id="svg1"
   xml:space="preserve"
   inkscape:version="1.3.2 (091e20e, 2023-11-25, custom)"
   sodipodi:docname="OpenEyeButton.svg"
   inkscape:export-filename="OpenEyeButton.png"
   inkscape:export-xdpi="96"
   inkscape:export-ydpi="96"
   xmlns:inkscape="http://www.inkscape.org/namespaces/inkscape"
   xmlns:sodipodi="http://sodipodi.sourceforge.net/DTD/sodipodi-0.dtd"
   xmlns="http://www.w3.org/2000/svg"
   xmlns:svg="http://www.w3.org/2000/svg"><sodipodi:namedview
     id="namedview1"
     pagecolor="#ffffff"
     bordercolor="#666666"
     borderopacity="1.0"
     inkscape:showpageshadow="2"
     inkscape:pageopacity="0.0"
     inkscape:pagecheckerboard="0"
     inkscape:deskcolor="#d1d1d1"
     inkscape:document-units="px"
     inkscape:zoom="1.158716"
     inkscape:cx="139.80993"
     inkscape:cy="196.33802"
     inkscape:window-width="1920"
     inkscape:window-height="1017"
     inkscape:window-x="-8"
     inkscape:window-y="-8"
     inkscape:window-maximized="1"
     inkscape:current-layer="layer3" /><defs
     id="defs1" /><g
     inkscape:groupmode="layer"
     id="layer4"
     inkscape:label="Capa 4"><g
       id="g10"
       transform="matrix(3.12,0,0,3.12,-559.26608,-269.54484)"><path
         id="rect7"
         style="fill:#ffffff;fill-opacity:1;stroke:none;stroke-width:18.7115;stroke-linecap:round"
         d="m 179.25195,127.40625 v 8.98633 h 8.98633 z" /><path
         id="rect8"
         style="fill:#d00a50;fill-opacity:1;stroke:none;stroke-width:18.7115;stroke-linecap:round"
         d="m 179.25195,86.392578 v 35.650392 l 14.34961,14.34961 h 35.65039 V 86.392578 Z" /></g></g><g
     inkscape:groupmode="layer"
     id="layer2"
     inkscape:label="Capa 2"
     sodipodi:insensitive="true"><path
       id="path1"
       style="fill:#ffffff;stroke:none;stroke-width:18.8976;stroke-linecap:round"
       d="m 142.01829,336.94896 -5.10029,-1.36588 -7.46605,7.46606 1.41145,5.26463 -8.93137,8.93137 -5.26462,-1.41146 -7.46606,7.46605 1.36588,5.10029 3.73441,-3.73441 c 1.88256,-1.88257 4.91503,-1.88258 6.79761,0 1.88258,1.88258 1.88119,4.91367 -0.001,6.79624 l -3.54244,3.54244 4.57686,1.22638 7.46605,-7.46606 -1.41007,-5.26324 8.93136,-8.93137 5.26325,1.41007 7.46606,-7.46605 -1.22638,-4.57686 -3.54244,3.54244 c -1.88257,1.88257 -4.91366,1.88396 -6.79624,10e-4 -1.88258,-1.88258 -1.88257,-4.91505 0,-6.79761 z" /></g><g
     inkscape:groupmode="layer"
     id="layer3"
     inkscape:label="Capa 3"><g
       id="g3"
       transform="matrix(0.51722431,0,0,0.51722431,204.88563,63.517719)"><path
         id="path2"
         style="fill:none;stroke:#ffffff;stroke-width:15;stroke-linecap:round;stroke-linejoin:round;stroke-opacity:1"
         d="M -245.32031,-41.496094 A 119.49702,119.49702 0 0 0 -353.82422,28 a 119.49702,119.49702 0 0 0 108.50391,69.496094 119.49702,119.49702 0 0 0 108.5039,-69.501953 119.49702,119.49702 0 0 0 -108.5039,-69.490235 z" /><ellipse
         style="fill:#ffffff;fill-opacity:1;stroke:#ffffff;stroke-width:14.5414;stroke-linecap:round;stroke-linejoin:round;stroke-opacity:1"
         id="path3"
         cx="-245.32031"
         cy="28"
         rx="27.729282"
         ry="27.7293" /></g></g></svg>
